<svg xmlns="http://www.w3.org/2000/svg" width="256" height="256"><path fill-opacity=".016" d="M0 128.004v128.004l128.25-.254 128.25-.254.254-127.75L257.008 0H0v128.004m.485.496c0 70.4.119 99.053.265 63.672.146-35.38.146-92.98 0-128C.604 29.153.485 58.1.485 128.5" fill="#1976D2" fill-rule="evenodd"/><path fill-opacity=".39" d="M2.039 79.189C.073 81.299 0 82.55 0 114.234v32.857l2.455 2.454L4.909 152H36.52c32.203 0 34.369-.228 37.198-3.913.898-1.17 1.227-10.034 1.25-33.702.031-31.001-.04-32.207-2.041-34.75L70.855 77H37.466c-33.059 0-33.408.022-35.427 2.189m90.986-.214c-1.086 1.086-2.23 2.998-2.544 4.25-.313 1.251-.437 16.152-.275 33.113l.294 30.838 2.806 2.412L96.112 152h64.042l2.962-2.963 2.963-2.962-.29-32.434c-.27-30.263-.417-32.575-2.194-34.537-1.864-2.058-2.628-2.104-35.25-2.104-31.868 0-33.432.087-35.32 1.975m90.048.66c-1.999 2.541-2.073 3.776-2.073 34.577v31.942l2.923 2.923 2.923 2.923h31.942c30.801 0 32.036-.074 34.577-2.073l2.635-2.072v-33.428c0-32.094-.08-33.507-2-35.427-1.92-1.92-3.333-2-35.427-2h-33.428l-2.072 2.635M4.2 81.2c-.884.884-1.2 9.703-1.2 33.465 0 30.876.083 32.309 1.934 33.3 1.214.649 13.45 1.035 32.845 1.035 28.676 0 31.031-.132 32.566-1.829 1.466-1.62 1.655-5.419 1.655-33.3 0-23.144-.318-31.789-1.2-32.671-1.717-1.717-64.883-1.717-66.6 0m89.775 1.365c-.555 1.459-.975 15.47-.975 32.5 0 28.602.089 30.024 2 31.935 1.915 1.915 3.333 2 33.443 2 31.359 0 31.448-.006 33-2.223 1.326-1.893 1.557-6.721 1.557-32.565 0-19.004-.387-31.066-1.035-32.278-.992-1.852-2.433-1.934-34.025-1.934H94.95l-.975 2.565m91.06-.631c-.649 1.214-1.035 13.45-1.035 32.845 0 28.676.132 31.031 1.829 32.566 1.618 1.464 5.368 1.655 32.565 1.655 19.276 0 31.459-.386 32.672-1.035 1.851-.991 1.934-2.424 1.934-33.3 0-23.762-.316-32.581-1.2-33.465-.884-.884-9.703-1.2-33.465-1.2-30.876 0-32.309.083-33.3 1.934M22.2 91.2c-.848.848-1.2 6.694-1.2 19.923v18.724l2.703 3.212c3.4 4.04 7.886 5.941 14.015 5.939 5.996-.002 11.077-2.502 14.012-6.896 2.152-3.221 2.27-4.343 2.27-21.55C54 91.063 53.737 90 48.922 90c-3.504 0-4.762 1.667-5.059 6.703-.223 3.765-.511 4.167-3.303 4.591-1.683.256-4.522.236-6.31-.045-3.065-.482-3.25-.748-3.25-4.68 0-2.293-.54-4.709-1.2-5.369-1.547-1.547-6.053-1.547-7.6 0m179.252.952c-2.025 6.379.238 13.403 6.077 18.865 1.46 1.366 3.074 3.26 3.586 4.21 1.343 2.491-1.007 5.773-4.133 5.773-5.849 0-10.216 6.607-7.962 12.047 1.335 3.225 5.464 5.953 9.007 5.953 2.886 0 7.973-5.275 7.973-8.268 0-1.332.835-3.178 1.857-4.102 1.631-1.477 2.005-1.501 3.086-.199.676.815.942 1.946.591 2.514-1.042 1.686 2.364 7.688 5.061 8.916 3.959 1.804 6.343 1.355 9.482-1.784 4.1-4.1 4.04-8.959-.154-12.488-1.692-1.424-3.872-2.589-4.845-2.589-.972 0-2.573-.89-3.557-1.977-1.738-1.921-1.643-2.154 3.367-8.25 6.262-7.617 7.844-12.025 6.154-17.145-.658-1.995-1.739-3.628-2.402-3.628-.662 0-4.325 4.05-8.14 9-3.815 4.95-7.175 8.984-7.468 8.965-.293-.019-3.627-4.069-7.41-9-3.783-4.931-7.465-8.965-8.182-8.965-.718 0-1.613.969-1.988 2.152m-88.417.782c-.597 1.116-1.035 9.127-1.035 18.931 0 16.864-.017 16.998-2.25 17.315-3.251.462-3.625 5.093-.585 7.223 1.807 1.266 5.003 1.597 15.403 1.597 11.442 0 13.334-.234 14.777-1.829 1.404-1.551 1.655-4.421 1.655-18.939v-17.111l3.75-.311c3.277-.271 3.791-.664 4.072-3.12.612-5.337-.53-5.69-18.409-5.69-15.134 0-16.419.143-17.378 1.934M24 102.5c0 8.833.14 9.5 2 9.5 1.86 0 2-.667 2-9.5s-.14-9.5-2-9.5c-1.86 0-2 .667-2 9.5m23 1.435c0 13.064-.841 15.883-4.983 16.712-2.746.549-3.017.958-3.017 4.561 0 4.538-2.29 4.915-2.816.465-.273-2.307-.779-2.673-3.691-2.673-1.856 0-3.684-.5-4.062-1.112-.993-1.607 1.619-3.004 4.838-2.587 3.112.403 5.676-1.756 4.034-3.398-.556-.556-3.665-.875-6.907-.707l-5.896.304-.294 6.685c-.271 6.164-.069 6.937 2.601 9.925 2.531 2.832 3.639 3.289 8.794 3.62 6.834.44 12.107-1.7 14.12-5.73.852-1.705 1.254-7.984 1.264-19.75C50.999 93.662 50.923 93 49 93c-1.878 0-2 .667-2 10.935m68 7.565V129H132.867l.317 2.75c.227 1.978.878 2.75 2.316 2.75 1.925 0 2.01-.757 2.271-20.25l.27-20.25H115v17.5m26.667-16.833c-1.36 1.359-.595 2.333 1.833 2.333 1.556 0 2.5-.567 2.5-1.5 0-1.5-3.075-2.091-4.333-.833M204 97.807c0 3.145.829 5.06 3.834 8.853 5.461 6.895 6.608 7.717 8.156 5.852.846-1.019.933-1.92.267-2.762-.543-.687-3.523-4.559-6.622-8.603L204 93.793v4.014m22.908 5.342c-8.352 10.731-9.479 12.322-8.142 11.496.611-.378 1.513.031 2.004.909.727 1.299 2.019.268 6.95-5.547 5.778-6.813 8.302-12.385 6.45-14.237-.473-.473-3.716 2.822-7.262 7.379m-195.207 1.483c-.385.386-.701 2.201-.701 4.035 0 2.91.325 3.333 2.56 3.333 2.347 0 2.535-.313 2.25-3.742-.296-3.569-2.352-5.383-4.109-3.626m7.966.035c-1.155 1.154-.654 8.728.743 11.251l1.34 2.418 1.214-2.269c.944-1.763.997-8.216.098-11.817-.134-.536-2.765-.214-3.395.417m174.585 14.635c-1.913 2.693-2.033 3.345-.837 4.542 1.197 1.196 1.832.913 4.422-1.973 1.836-2.047 2.56-3.522 1.843-3.755-.649-.212-1.633-.739-2.187-1.171-.58-.453-1.956.548-3.241 2.357m7.85 2.076c-.73.878-.824 1.676-.241 2.036 1.368.846 4.291-.457 3.869-1.725-.573-1.717-2.336-1.869-3.628-.311m-17.702 3.387c-.605.404-1.65 1.778-2.321 3.052-2.526 4.794 3.782 9.815 8.47 6.743 3.217-2.108 3.337-6.826.228-9.003-2.399-1.681-4.63-1.958-6.377-.792m22.255 1.064c-2.534 2.799-2.095 6.837.96 8.838 2.343 1.535 2.89 1.56 5.25.242 1.675-.936 2.753-2.495 2.96-4.279.636-5.496-5.591-8.757-9.17-4.801m-21.905.251c-2.501 1.457-2.297 6.557.317 7.956 1.608.86 2.608.752 4.5-.488 2.892-1.895 3.129-4.608.604-6.893-2.099-1.9-2.985-1.994-5.421-.575m23 0c-2.176 1.267-2.273 5.255-.179 7.349 1.953 1.952 2.438 1.953 5.206.014 2.602-1.822 2.87-4.653.652-6.872-1.808-1.807-3.21-1.929-5.679-.491m-21.596 3.358c.191.917.796 1.644 1.346 1.615 1.484-.079 1.212-2.316-.346-2.835-.841-.28-1.215.177-1 1.22M229.5 129c-.399.646-.276 1.624.274 2.174.667.667 1.242.609 1.726-.174.399-.646.276-1.624-.274-2.174-.667-.667-1.242-.609-1.726.174m-119.252 4.25c.287.865 3.545 1.338 10.565 1.535 8.787.246 10.072.078 9.562-1.25-.475-1.238-2.519-1.535-10.565-1.535-7.536 0-9.875.306-9.562 1.25m-87.539 33.374c-.39.39-.709 3.109-.709 6.043 0 3.958.369 5.333 1.43 5.333.787 0 1.626-1.012 1.864-2.25l.434-2.25.136 2.25c.075 1.238.608 2.25 1.186 2.25.646 0 .935-2.211.75-5.75-.256-4.908-.599-5.793-2.341-6.042-1.123-.161-2.36.027-2.75.416m8.388.759c-.675.813-1.08 3.4-.908 5.793.281 3.904.583 4.355 3.113 4.645l2.802.322-.302-5.812c-.318-6.114-2.144-8.034-4.705-4.948m8 0c-.675.813-1.08 3.4-.908 5.793.278 3.863.578 4.324 2.811 4.324 1.831 0 2.585-.602 2.82-2.25.374-2.637-1.46-3.067-2.131-.5-.251.963-.474-.05-.494-2.25-.02-2.2.19-3.437.467-2.75.858 2.127 2.495 1.376 2.158-.99-.381-2.669-3.014-3.436-4.723-1.377M46 172c0 4.51.352 6 1.417 6 .779 0 1.643-.562 1.921-1.25.403-1 .52-1 .583 0 .043.688.458 1.25.92 1.25.463 0 .805-2.7.76-6-.045-3.3-.423-6-.841-6s-.76.54-.76 1.2c0 .933-.267.933-1.2 0-2.221-2.221-2.8-1.228-2.8 4.8m64 0c0 3.333.444 6 1 6 .55 0 1-.792 1-1.759 0-.968.9-2.322 2-3.009 3.473-2.169 1.933-7.232-2.2-7.232-1.533 0-1.8.889-1.8 6m8.652-5.245c-1.174 1.899-1.892 11.245-.864 11.245.575 0 1.274-.562 1.553-1.25.383-.946.755-.892 1.528.221 1.772 2.551 2.453.265 1.525-5.121-.832-4.834-2.5-7.105-3.742-5.095M125 172c0 4.667.333 6 1.5 6 .841 0 1.5-.892 1.5-2.031 0-1.118.675-2.291 1.5-2.607 2.011-.772 1.948-5.976-.082-6.755-3.844-1.475-4.418-.775-4.418 5.393m8 0c0 5.733.111 6 2.5 6 1.375 0 2.5-.45 2.5-1s-.675-1-1.5-1-1.5-.675-1.5-1.5.675-1.5 1.5-1.5 1.5-.45 1.5-1-.675-1-1.5-1c-2.245 0-1.808-1.686.601-2.316 2.724-.713 1.505-2.684-1.66-2.684-2.317 0-2.441.305-2.441 6m7.709-5.376c-.39.39-.709 3.109-.709 6.043 0 3.958.369 5.333 1.43 5.333.787 0 1.626-1.012 1.864-2.25l.434-2.25.136 2.25c.075 1.238.608 2.25 1.186 2.25.646 0 .935-2.211.75-5.75-.256-4.908-.599-5.793-2.341-6.042-1.123-.161-2.36.027-2.75.416m50.337.82c-1.351 1.628-1.106 2.584 1.678 6.556 1.673 2.386 1.672 2.436-.01 1.107-2.05-1.619-3.233-.902-2.342 1.42.898 2.341 5.055 1.487 5.426-1.115.164-1.148-.398-2.665-1.25-3.372-2.022-1.679-1.989-3.147.053-2.363 1.177.452 1.506.115 1.239-1.27-.464-2.408-3.147-2.947-4.794-.963m7.388-.132c-.308.802-.419 3.419-.247 5.815.237 3.303.761 4.441 2.169 4.708 2.483.471 4.074-1.276 3.205-3.518-.671-1.733-.77-1.727-2.132.124-1.328 1.804-1.429 1.672-1.429-1.872 0-3.304.204-3.645 1.524-2.549 1.969 1.634 3.223.389 1.833-1.818-1.404-2.23-4.214-2.738-4.923-.89M206 172c0 3.333.444 6 1 6s1-2.667 1-6-.444-6-1-6-1 2.667-1 6m5.046-4.556c-1.351 1.628-1.106 2.584 1.678 6.556 1.673 2.386 1.672 2.436-.01 1.107-2.05-1.619-3.233-.902-2.342 1.42.898 2.341 5.055 1.487 5.426-1.115.164-1.148-.398-2.665-1.25-3.372-2.022-1.679-1.989-3.147.053-2.363 1.177.452 1.506.115 1.239-1.27-.464-2.408-3.147-2.947-4.794-.963m7.621-.777c-1.205 1.204-.697 5.063.833 6.333.825.685 1.464 1.752 1.421 2.372-.05.709-.266.663-.583-.122-.791-1.96-2.338-1.463-2.338.75 0 1.473.667 2 2.531 2 3.454 0 4.165-2.567 1.652-5.966-2.015-2.726-2.02-2.804-.134-2.311 2.189.572 2.569-.705.751-2.523-1.328-1.328-3.109-1.558-4.133-.533m7.368 1.267c-2.323 4.341-.921 10.066 2.465 10.066 2.576 0 3.5-1.685 3.5-6.382 0-5.193-3.876-7.587-5.965-3.684M234 172c0 5.87 1.434 8.214 2.294 3.75l.434-2.25.136 2.25c.076 1.257.788 2.25 1.614 2.25 1.119 0 1.441-1.156 1.325-4.75-.173-5.362-1.195-7.25-3.925-7.25-1.629 0-1.878.797-1.878 6m8.089-4.167c-.814 1.521-.607 2.509.933 4.468 1.088 1.383 1.971 2.893 1.963 3.357-.009.463-.408.222-.889-.536-1.109-1.752-3.197-.549-2.445 1.41.685 1.785 5.301 1.969 5.467.218.236-2.488-.329-4.284-1.902-6.043-1.483-1.658-1.469-1.741.191-1.104 1.39.533 1.714.263 1.433-1.196-.499-2.592-3.478-2.952-4.751-.574M33.252 172.5c.011 2.2.216 2.982.455 1.738.239-1.244.23-3.044-.02-4s-.446.062-.435 2.262m195 0c.011 2.2.216 2.982.455 1.738.239-1.244.23-3.044-.02-4s-.446.062-.435 2.262" fill="#1976D2" fill-rule="evenodd"/><path fill-opacity=".477" d="M2.455 79.455L0 81.909v31.911c0 30.769.074 32.005 2.073 34.545L4.145 151h33.273c32.547 0 33.314-.046 35.177-2.103 1.772-1.957 1.926-4.25 2.199-32.75.162-16.856.038-31.671-.275-32.922-.314-1.252-1.458-3.164-2.544-4.25C70.089 77.089 68.527 77 37.455 77H4.909l-2.454 2.455m91.18-.382L91 81.145v32.928c0 31.594.081 33.008 2 34.927 1.919 1.919 3.333 2 35 2s33.081-.081 35-2c1.919-1.919 2-3.333 2-34.826V81.349l-2.314-2.175C160.409 77.035 159.851 77 128.32 77c-30.91 0-32.144.074-34.685 2.073M184 79c-1.92 1.92-2 3.333-2 35.443 0 33.426.001 33.444 2.223 35 1.901 1.332 6.948 1.557 34.961 1.557 32.391 0 32.76-.023 34.777-2.189 1.965-2.109 2.039-3.364 2.039-34.545V81.909l-2.455-2.454L251.091 77h-32.546c-31.212 0-32.627.082-34.545 2M4 81c-1.913 1.913-2 3.333-2 32.777 0 26.238.23 31.106 1.557 33 1.554 2.219 1.614 2.223 33.8 2.223 23.744 0 32.559-.316 33.443-1.2.884-.884 1.2-9.695 1.2-33.429 0-27.965-.208-32.436-1.571-33.8-1.362-1.361-5.762-1.571-33-1.571C7.333 79 5.915 79.085 4 81m90.655-.171C93.189 82.449 93 86.251 93 114.174c0 29.262.131 31.634 1.829 33.171 1.62 1.466 5.428 1.655 33.428 1.655 27.394 0 31.809-.209 33.172-1.571 1.362-1.363 1.571-5.794 1.571-33.345 0-29.512-.13-31.892-1.829-33.429-1.62-1.466-5.422-1.655-33.345-1.655-29.262 0-31.634.131-33.171 1.829m91 0c-1.467 1.621-1.655 5.453-1.655 33.8 0 23.533.317 32.288 1.2 33.171.884.884 9.677 1.2 33.345 1.2 29.872 0 32.262-.129 33.8-1.829 1.465-1.619 1.655-5.398 1.655-33 0-29.838-.086-31.257-2-33.171-1.915-1.915-3.333-2-33.345-2-29.097 0-31.464.131-33 1.829M22.571 91.571C21.263 92.88 21 96.065 21 110.621c0 19.462.618 21.956 6.299 25.419 4.543 2.771 15.706 2.738 20.232-.059 5.418-3.349 6.469-7.63 6.469-26.346 0-14.545-.199-16.505-1.829-17.98C48.076 87.949 44 90.847 44 97.466c0 4.565.144 4.462-6.25 4.453-6.426-.009-6.75-.226-6.75-4.514 0-6.253-4.733-9.529-8.429-5.834m179.464.363c-1.376 2.572-1.316 8.662.112 11.382.631 1.201 3.327 4.716 5.992 7.81l4.844 5.626-1.886 2.397c-1.078 1.371-3.108 2.49-4.741 2.613-3.592.271-7.356 4.446-7.356 8.159 0 4.318 3.487 8.079 7.491 8.079 1.84 0 4.074-.28 4.964-.621 1.854-.711 4.545-5.449 4.545-8.001 0-.946.741-2.539 1.647-3.54 1.56-1.725 1.715-1.729 2.968-.079.727.958 1.336 2.999 1.353 4.536.101 8.893 14.591 10.542 16.494 1.877 1.16-5.283-1.873-9.637-7.289-10.463-2.73-.417-5.173-2.616-5.173-4.657 0-.937 1.15-2.784 2.556-4.105 1.406-1.321 3.881-4.401 5.5-6.846 3.25-4.906 3.958-11.333 1.602-14.554-1.388-1.898-2.449-.809-14.361 14.731l-2.129 2.778-7.334-9.465c-4.034-5.205-7.656-9.493-8.049-9.528-.393-.035-1.18.807-1.75 1.871m-88.478 1.289c-1.259 1.797-1.557 5.433-1.557 19 0 15.794-.111 16.777-1.893 16.777-1.713 0-3.107 1.799-3.107 4.01 0 .466.707 1.554 1.571 2.419 1.283 1.283 4.214 1.571 15.965 1.571 13.207 0 14.479-.159 15.429-1.934.597-1.117 1.035-9.149 1.035-19V99h4c3.53 0 4-.276 4-2.345 0-4.947-2.35-5.655-18.772-5.655-14.485 0-15.179.093-16.671 2.223M24.2 93.2c-.763.763-1.2 4.624-1.2 10.607 0 8.167.208 9.327 1.582 8.8.87-.334 2.22-.607 3-.607 1.117 0 1.418-1.87 1.418-8.8 0-8.003-.856-11.2-3-11.2-.33 0-1.14.54-1.8 1.2m23 0c-.796.796-1.2 5.128-1.2 12.878 0 12.412-.363 13.435-5 14.076-2.284.316-2.471.712-2.164 4.596.205 2.597-.086 4.25-.75 4.25-.597 0-1.086-1.035-1.086-2.3 0-3.207-1.829-4.7-5.759-4.7-1.985 0-3.106-.409-2.741-1 .34-.55 2.406-1 4.59-1 4.343 0 6.027-1.949 3.899-4.513-1.437-1.732-9.124-2.021-12.055-.452-1.553.832-1.934 2.121-1.934 6.55C23 131.857 27.301 136 37.965 136c5.51 0 6.406-.313 9.8-3.421l3.735-3.422.335-17.123c.241-12.34-.002-17.531-.872-18.579-1.468-1.768-2.2-1.818-3.763-.255m68.467.467c-.367.366-.667 8.449-.667 17.961v17.294l8.707.289c8.357.277 8.731.389 9.294 2.784.656 2.788 3.799 3.928 5.114 1.853.47-.741.861-10.236.87-21.098L139 93h-11.333c-6.234 0-11.634.3-12 .667m26 0C140.007 95.326 141.179 97 144 97c3.196 0 3.745-.855 1.8-2.8-1.328-1.328-3.109-1.558-4.133-.533m61.337 3.583c.004 3.673 2.017 7.22 7.803 13.75l3.988 4.5 1.23-2.678c1.158-2.52.854-3.154-5.147-10.748-3.508-4.438-6.716-8.071-7.128-8.072-.412-.001-.748 1.461-.746 3.248m23.352 6.002a2562.017 2562.017 0 01-10.878 13.991c-3.098 3.935-3.522 5-2.484 6.25.688.829 1.55 1.507 1.916 1.507.875 0 17.466-19.866 18.944-22.684 1.28-2.439 1.56-8.317.396-8.314-.412.001-3.965 4.163-7.894 9.25m-194.689 1.415c-.367.366-.667 2.166-.667 4 0 2.889.333 3.333 2.5 3.333 2.25 0 2.5-.4 2.5-4 0-3.212-.361-4-1.833-4-1.009 0-2.134.3-2.5.667m6.96.862c-1.597 4.163.74 12.74 3.336 12.24 1.194-.23 1.537-1.742 1.537-6.783 0-5.849-.208-6.516-2.123-6.789-1.252-.179-2.38.368-2.75 1.332M218 116.583c0 1.766 2.153 1.459 2.771-.395.218-.654-.317-1.188-1.188-1.188-.87 0-1.583.713-1.583 1.583m4.147 3.74c-1.186 1.429-.604 4.677.838 4.677.423 0 1.349-.698 2.057-1.55 1.057-1.274 1.019-1.817-.214-3.05-1.294-1.295-1.662-1.305-2.681-.077m-19.492 5.506c-3.399 3.756-.721 10.171 4.247 10.171 5.217 0 8.165-6.79 4.527-10.429-2.122-2.121-6.744-1.986-8.774.258m22.758.664c-3.22 4.914 1.039 10.614 6.842 9.158 3.081-.773 5.006-4.834 3.798-8.011-1.659-4.365-8.078-5.057-10.64-1.147m-21.17.664c-2.899 2.899-.307 7.273 3.952 6.67 1.905-.27 2.305-.934 2.305-3.827 0-2.991-.364-3.543-2.507-3.793-1.379-.161-3.066.266-3.75.95m22.957.043c-2.69 2.69-.596 6.8 3.465 6.8 2.963 0 4.789-3.284 3.335-6-1.187-2.218-4.941-2.659-6.8-.8m-21.754 1.887c-.369.598-.21 1.549.354 2.113 1.262 1.262 3.2.196 3.2-1.759 0-1.684-2.574-1.94-3.554-.354M228.5 129c-.837 1.354.292 3 2.059 3 .793 0 1.441-.9 1.441-2 0-2.07-2.413-2.76-3.5-1m-118.792 2.625c-.38.38-.189 1.295.423 2.033.795.958 3.96 1.342 11.065 1.342 8.938 0 9.917-.178 9.616-1.75-.289-1.505-1.741-1.79-10.374-2.033-5.522-.155-10.35.028-10.73.408M23.15 172.68c.082 3.201.337 4.582.566 3.07.521-3.436 2.284-3.629 2.284-.25 0 1.375.442 2.5.981 2.5.547 0 .878-2.325.748-5.25-.205-4.597-.514-5.29-2.481-5.57-2.124-.301-2.24.003-2.098 5.5m7.85-.18c0 5.276.145 5.619 2.25 5.32 1.991-.283 2.25-.896 2.25-5.32s-.259-5.037-2.25-5.32c-2.105-.299-2.25.044-2.25 5.32m8 0c0 4.862.236 5.5 2.031 5.5 2.117 0 3.777-2.565 2.456-3.793-.419-.389-.962-.144-1.207.543-.893 2.499-2.28 1.166-2.28-2.191 0-3.491 1.458-5.612 2.278-3.315.246.691.78.948 1.185.573 1.165-1.081-.39-2.817-2.522-2.817-1.686 0-1.941.722-1.941 5.5m7-.559c0 5.172 1.536 7.724 2.302 3.824l.444-2.265.744 2.25c.409 1.238 1.141 2.25 1.627 2.25 1.149 0 1.116-1.257-.117-4.5-.675-1.776-.664-3.26.035-4.565 1.291-2.413.146-2.542-1.643-.185-1.265 1.667-1.33 1.667-1.36 0-.018-.963-.482-1.75-1.032-1.75s-1 2.223-1 4.941m64 .559c0 3.025.45 5.5 1 5.5s1-1.125 1-2.5c0-1.556.567-2.5 1.5-2.5 1 0 1.5-1 1.5-3 0-2.533-.389-3-2.5-3-2.364 0-2.5.3-2.5 5.5m8.686-4.75c-1.056 1.836-1.739 10.25-.831 10.25.538 0 1.241-.562 1.562-1.25.466-1 .7-1 1.166 0 .321.688 1.017 1.25 1.546 1.25.877 0 .486-4.622-.784-9.25-.494-1.8-1.895-2.327-2.659-1m6.314 4.125c0 2.754.45 5.285 1 5.625.562.348 1-.451 1-1.824 0-1.633.69-2.623 2.079-2.986 3.242-.848 2.216-5.099-1.329-5.506-2.676-.308-2.75-.182-2.75 4.691m8 .625c0 5.2.136 5.5 2.5 5.5 1.375 0 2.5-.45 2.5-1s-.675-1-1.5-1c-1.813 0-2.003-2.599-.25-3.417 1-.466 1-.7 0-1.166-1.836-.857-1.522-3.199.5-3.728 1.077-.281.692-.502-1-.573-2.681-.113-2.75.023-2.75 5.384m8.15.18c.082 3.201.337 4.582.566 3.07.521-3.436 2.284-3.629 2.284-.25 0 1.375.442 2.5.981 2.5.547 0 .878-2.325.748-5.25-.205-4.597-.514-5.29-2.481-5.57-2.124-.301-2.24.003-2.098 5.5m49.85-3.302c0 1.307.675 2.937 1.5 3.622s1.5 1.688 1.5 2.229c0 .542-.675.726-1.5.409-.914-.35-1.5-.001-1.5.893 0 1.971 3.903 1.884 4.666-.103.332-.865-.353-2.866-1.522-4.447s-1.718-3.126-1.22-3.434c.498-.308 1.107.006 1.354.697.246.691.78.948 1.185.573 1.165-1.081-.39-2.817-2.522-2.817-1.377 0-1.941.691-1.941 2.378m7.402-.983c-.294.767-.393 3.129-.219 5.25.257 3.119.747 3.916 2.567 4.175 1.795.255 2.234-.15 2.171-2-.043-1.276-.306-1.757-.583-1.07-1.052 2.606-2.338 1.094-2.338-2.75 0-2.2.45-4 1-4s1 .45 1 1 .436 1 .969 1c.532 0 .709-.675.393-1.5-.726-1.89-4.246-1.965-4.96-.105M206 172.5c0 3.025.45 5.5 1 5.5s1-2.475 1-5.5-.45-5.5-1-5.5-1 2.475-1 5.5m5-3.122c0 1.307.675 2.937 1.5 3.622s1.5 1.688 1.5 2.229c0 .542-.675.726-1.5.409-.914-.35-1.5-.001-1.5.893 0 1.971 3.903 1.884 4.666-.103.332-.865-.353-2.866-1.522-4.447s-1.718-3.126-1.22-3.434c.498-.308 1.107.006 1.354.697.246.691.78.948 1.185.573 1.165-1.081-.39-2.817-2.522-2.817-1.377 0-1.941.691-1.941 2.378m7.347-.841c-.324.846.072 2.308.88 3.25 2.97 3.464 3.183 4.478.78 3.715-1.652-.524-2.124-.354-1.792.643.248.745 1.314 1.355 2.368 1.355 2.431 0 3.085-3.701.965-5.46-.851-.707-1.548-1.96-1.548-2.785 0-1.22.28-1.267 1.5-.255 1.229 1.02 1.5.951 1.5-.378 0-2.087-3.857-2.157-4.653-.085m7.851 3.713c.258 4.483.594 5.25 2.302 5.25 1.708 0 2.044-.767 2.302-5.25.292-5.067.212-5.25-2.302-5.25-2.514 0-2.594.183-2.302 5.25m7.802.25c0 3.025.45 5.5 1 5.5s1-1.215 1-2.7c0-2.943 1.477-2.168 2.287 1.2.265 1.1.533-.588.597-3.75.111-5.498.006-5.75-2.384-5.75-2.364 0-2.5.3-2.5 5.5m8-3.571c0 1.06.675 2.603 1.5 3.428 1.993 1.993 1.912 3.738-.136 2.952-1.126-.432-1.49-.187-1.167.782.258.775 1.332 1.409 2.386 1.409 2.431 0 3.085-3.701.965-5.46-.851-.707-1.548-1.96-1.548-2.785 0-1.22.28-1.267 1.5-.255 1.229 1.02 1.5.951 1.5-.378 0-1.063-.861-1.622-2.5-1.622-1.802 0-2.5.538-2.5 1.929m-217.417-.063c-.431.697-.513 1.537-.183 1.867.895.895 1.871-.421 1.387-1.871-.338-1.016-.574-1.016-1.204.004m8.084-.199C31.608 169.725 31.894 176 33 176c.55 0 1-1.8 1-4 0-4.087-.166-4.501-1.333-3.333M112 170c0 1.867.267 2.133 1.2 1.2.933-.933.933-1.467 0-2.4-.933-.933-1.2-.667-1.2 1.2m15 0c0 1.1.45 2 1 2s1-.9 1-2-.45-2-1-2-1 .9-1 2m15.583-1.134c-.431.697-.513 1.537-.183 1.867.895.895 1.871-.421 1.387-1.871-.338-1.016-.574-1.016-1.204.004M228 171.941c0 2.232.176 4.059.391 4.059.8 0 1.19-7.141.415-7.62-.443-.274-.806 1.329-.806 3.561m8-1.941c0 1.867.267 2.133 1.2 1.2.933-.933.933-1.467 0-2.4-.933-.933-1.2-.667-1.2 1.2m-117 2.441c0 .857.45 1.559 1 1.559s1-.423 1-.941-.45-1.219-1-1.559c-.55-.34-1 .084-1 .941" fill="#1976D2" fill-rule="evenodd"/><path fill-opacity=".513" d="M4.321 78.168c-4.117 2.03-4.42 4.807-4.113 37.729L.5 147.179l2.361 1.91C5.076 150.882 7.218 151 37.611 151c31.056 0 32.471-.082 34.389-2 1.919-1.919 2-3.333 2-34.845 0-32.114-.047-32.887-2.104-34.75-1.964-1.779-4.193-1.918-33.75-2.109-20.946-.134-32.383.16-33.825.872m90.914-.152c-1.245.512-2.708 2.097-3.25 3.522-.57 1.5-.985 15.644-.985 33.573v30.98l2.455 2.454L95.909 151h64.182l2.454-2.455 2.455-2.454v-31.935c0-29.946-.119-32.081-1.911-34.295l-1.91-2.361-31.84-.207c-17.888-.117-32.831.2-34.104.723m91.08-.009c-1.201.484-2.664 1.776-3.25 2.871-.69 1.289-1.065 13.229-1.065 33.882v31.891l2.314 2.175c2.278 2.139 2.83 2.174 34.546 2.174h32.231l2.454-2.455 2.455-2.454v-31.095c0-33.5-.356-36.055-5.21-37.355-3.564-.955-62.02-.623-64.475.366M3.655 80.829C2.188 82.449 2 86.262 2 114.329c0 30.338.084 31.755 2 33.671 1.914 1.914 3.333 2 32.865 2 29.711 0 30.964-.077 33.5-2.073L73 145.855V114.65c0-26.624-.229-31.531-1.557-33.427C69.889 79.004 69.83 79 37.598 79c-30.01 0-32.405.129-33.943 1.829m90.916-.258C93.208 81.935 93 86.419 93 114.515c0 32.318.004 32.374 2.223 33.928 1.894 1.327 6.766 1.557 33.045 1.557h30.823l2.495-2.495 2.495-2.495-.291-31.353c-.229-24.774-.578-31.7-1.662-33.005-1.225-1.474-4.861-1.652-33.679-1.652-28.036 0-32.514.208-33.878 1.571m89.986.652C183.23 83.117 183 87.989 183 114.268v30.823l2.455 2.454 2.454 2.455h30.823c26.279 0 31.151-.23 33.045-1.557 2.219-1.554 2.223-1.61 2.223-33.928 0-28.096-.208-32.58-1.571-33.944-1.364-1.363-5.848-1.571-33.944-1.571-32.318 0-32.374.004-33.928 2.223M23 92c-1.826 1.826-2 3.329-1.994 17.25.006 17.408.76 21.193 5.036 25.29 2.694 2.581 3.903 2.967 10.256 3.278 6.264.307 7.656.044 10.687-2.013 5.616-3.811 5.984-5.376 6-25.52.014-16.971-.117-18.285-1.913-19.246C47.171 88.951 44 92.215 44 98.321c0 3.129-.304 3.497-3.25 3.933-1.788.264-4.937.256-7-.018-3.747-.499-3.75-.503-3.75-5.332 0-3.755-.432-5.065-1.934-5.869-2.581-1.381-2.753-1.348-5.066.965m178.992 1.525c-1.643 4.977-.155 9.838 4.77 15.581 6.74 7.859 6.563 7.469 4.69 10.327-1.109 1.692-2.589 2.567-4.345 2.567-6.113 0-9.62 6.173-6.707 11.806 1.649 3.19 3.379 4.194 7.227 4.194 3.086 0 7.362-4.16 7.406-7.205.019-1.262.964-3.413 2.101-4.78l2.067-2.485 1.894 2.339c1.042 1.287 1.628 2.77 1.303 3.296-1.027 1.662 1.637 6.53 4.217 7.705 3.59 1.636 5.771 1.401 8.75-.943 3.722-2.927 3.722-8.927 0-11.854-1.449-1.14-3.587-2.087-4.75-2.104-1.163-.018-2.93-1.151-3.926-2.519l-1.81-2.487 5.525-6.657c6.02-7.251 7.658-12.405 5.632-17.719-1.28-3.357-.743-3.775-9.511 7.413-3.664 4.675-7.015 8.5-7.447 8.5-.432 0-3.61-3.6-7.063-8-9.21-11.734-8.594-11.306-10.023-6.975m-87.288-1.275c-1.444 1.076-1.714 3.762-1.941 19.25-.26 17.815-.286 18.003-2.513 18.32-2.508.356-3.13 3.9-1.05 5.98 1.669 1.669 27.931 1.669 29.6 0 .843-.843 1.2-6.489 1.2-19V99h4c3.767 0 4-.173 4-2.965 0-1.908-.69-3.334-1.934-4-2.853-1.527-29.266-1.346-31.362.215m-90.995.374c-.39.39-.709 5.281-.709 10.869v10.161l3.034-.446 3.033-.445-.283-10.131c-.262-9.329-.446-10.155-2.325-10.424-1.123-.161-2.36.027-2.75.416m23 0c-.39.39-.716 5.922-.724 12.293-.009 6.37-.385 12.165-.836 12.875-.451.711-2.131 1.653-3.734 2.094-2.624.721-2.886 1.166-2.622 4.457.338 4.21-1.5 5.053-1.977.907-.274-2.388-.81-2.791-4.066-3.06-4.904-.406-4.863-2.19.05-2.19 4.619 0 6.517-1.54 5.118-4.153-.786-1.468-2.171-1.847-6.753-1.847-3.171 0-6.305.54-6.965 1.2-.674.674-1.2 3.903-1.2 7.365 0 4.81.476 6.771 2.168 8.921 5.96 7.578 19.99 7.196 24.819-.676 1.868-3.044 2.01-4.715 1.772-20.81-.248-16.757-.346-17.512-2.3-17.792-1.123-.161-2.36.027-2.75.416m67.774 2.626c-.305 1.237-.426 9.45-.269 18.25l.286 16 8.651.287c8.139.271 8.686.427 9.241 2.64.701 2.791 3.325 4.053 5.196 2.5 1.014-.842 1.404-6.003 1.623-21.518l.289-20.411-12.231.001c-11.852.001-12.248.071-12.786 2.251m26.522-.756c-1.713 2.064-.09 3.796 3.13 3.341 1.587-.225 2.365-.993 2.365-2.335 0-2.532-3.671-3.204-5.495-1.006M203 97.306c0 4.463 1.198 6.629 7.838 14.172l3.337 3.791 2.085-2.085 2.085-2.085-3.785-4.799a501.499 501.499 0 01-6.922-9.011c-1.726-2.316-3.476-4.229-3.888-4.25-.412-.021-.75 1.899-.75 4.267m19.23 10.465c-11.254 14.614-11.267 14.637-9.277 16.626 1.095 1.096 2.139 1.792 2.319 1.547.181-.244 3.935-4.719 8.344-9.944 4.408-5.225 8.773-10.613 9.7-11.973 1.66-2.437 2.398-11.092.934-10.959-.412.038-5.821 6.654-12.02 14.703m-191.176-3.336c-.655.789-1.047 2.926-.872 4.75.283 2.946.652 3.315 3.318 3.315s3.035-.369 3.318-3.315c.33-3.439-1.143-6.185-3.318-6.185-.69 0-1.791.646-2.446 1.435m8.175-.264c-1.472 1.472-1.649 9.452-.229 10.329.55.34 1 1.491 1 2.559 0 2.093.752 2.385 2.799 1.086 1.96-1.243 1.23-14.524-.82-14.914-.836-.159-2.074.264-2.75.94M218.15 115.95c.43 1.289 1.801 1.521 1.925.325.041-.399-.465-.905-1.125-1.125-.66-.22-1.02.14-.8.8m3.48 4.907c-1.5 1.657-1.517 1.992-.155 3.122 1.234 1.024 1.859 1.01 3.275-.074.963-.736 1.927-1.456 2.143-1.598.555-.366-1.988-3.307-2.86-3.307-.398 0-1.479.835-2.403 1.857m-17.402 3.373c-4.348 2.096-4.191 9.555.244 11.575 4.373 1.993 9.528-1.407 9.528-6.285 0-1.961-4.409-6.546-6.205-6.452-.712.037-2.317.56-3.567 1.162m22.407.843C224.888 126.447 224 128.107 224 130c0 2.946 3.869 7 6.68 7 2.29 0 6.32-4.707 6.32-7.382 0-2.481-4.063-6.618-6.5-6.618-.677 0-2.416.933-3.865 2.073m-22.596 2.855c-1.307 2.442-.419 4.817 2.101 5.617 3.736 1.185 6.463-3.542 3.66-6.345-1.8-1.8-4.598-1.447-5.761.728m24.211-1.266c-2.135.862-1.523 6.116.798 6.853 3.814 1.211 6.596-3.471 3.752-6.315-1.25-1.25-2.437-1.391-4.55-.538m.854 1.273c-1.702 1.053-.735 4.065 1.306 4.065 2.195 0 3.016-2.003 1.458-3.56-.859-.859-1.887-1.047-2.764-.505M205 130c0 1.646.518 2.065 2.25 1.82 1.238-.176 2.25-.995 2.25-1.82 0-.825-1.012-1.644-2.25-1.82-1.732-.245-2.25.174-2.25 1.82m-96 2.3c0 2.947 2.484 3.7 12.2 3.7 9.787 0 9.8-.003 9.8-2.5V131h-11c-8.359 0-11 .312-11 1.3m-85.85 40.45c.082 3.162.337 4.512.566 3 .503-3.322 1.98-3.608 2.578-.5.239 1.238.495-.113.57-3 .12-4.629-.101-5.25-1.864-5.25-1.785 0-1.984.617-1.85 5.75m8.252-4.355c-1.069 2.786.04 9.105 1.598 9.105 1.104 0 1.58-1.384 1.802-5.25.245-4.25.001-5.25-1.281-5.25-.871 0-1.825.628-2.119 1.395m8 0c-1.063 2.769.04 9.105 1.584 9.105.818 0 1.579-.9 1.693-2 .16-1.554.091-1.61-.31-.25-.983 3.336-2.369 1.728-2.369-2.75 0-4.259 1.237-5.978 2.338-3.25.301.747.536.545.583-.5.094-2.076-2.749-2.363-3.519-.355m7.848 4.105c.027 3.3.237 4.762.466 3.25.473-3.123 2.284-3.765 2.284-.809 0 1.068.45 2.219 1 2.559 1.277.789 1.172-.158-.5-4.5-.741-1.925-1.427-3.05-1.524-2.5-.096.55-.536-.125-.976-1.5-.583-1.819-.787-.866-.75 3.5m2.75-4.441c0 .582.45.781 1 .441s1-.816 1-1.059-.45-.441-1-.441-1 .477-1 1.059m61.116 4.118c.064 2.928.341 4.434.617 3.348.275-1.086 1.172-2.466 1.992-3.066 1.917-1.402 1.274-4.835-.986-5.271-1.487-.286-1.722.437-1.623 4.989m7.884-4.236c0 .518.45 1.219 1 1.559.55.34 1-.084 1-.941s-.45-1.559-1-1.559-1 .423-1 .941m7.15 4.809c.082 3.162.337 4.512.566 3 .232-1.527 1.054-2.75 1.85-2.75.927 0 1.434-1.062 1.434-3 0-2.333-.444-3-2-3-1.785 0-1.984.617-1.85 5.75m7.85-.25c0 4.602.286 5.487 1.75 5.421 1.045-.047 1.247-.282.5-.583-.731-.295-1.25-2.309-1.25-4.848 0-3.296.422-4.454 1.75-4.801 1.317-.344 1.193-.486-.5-.573-2.075-.107-2.25.313-2.25 5.384m7.15.25c.082 3.162.34 4.486.572 2.941.442-2.938 2.885-3.246 2.639-.333-.076.903.219 1.642.655 1.642.636 0 .674-4.454.077-9.25-.051-.412-.993-.75-2.093-.75-1.785 0-1.984.617-1.85 5.75m50.197-4.213c-.324.846.14 2.344 1.032 3.329 1.753 1.937 2.192 5.134.704 5.134-.504 0-1.145-.461-1.425-1.025-.279-.564-.392-.451-.25.25.142.701.896 1.275 1.675 1.275 1.993 0 2.327-3.915.465-5.46-2.014-1.672-2.051-4.447-.048-3.678.825.316 1.5.139 1.5-.393 0-1.574-3.011-1.105-3.653.568m7.851 3.713c.221 3.843.7 5.25 1.788 5.25.818 0 1.536-.675 1.597-1.5.063-.862-.069-.969-.31-.25-.952 2.836-2.273.947-2.273-3.25 0-4.259 1.237-5.978 2.338-3.25.301.747.536.545.583-.5.051-1.124-.655-1.75-1.973-1.75-1.848 0-2.022.524-1.75 5.25m8.102-.25c0 3.025.187 4.262.416 2.75.229-1.512.229-3.988 0-5.5s-.416-.275-.416 2.75m4.047-3.463c-.324.846.14 2.344 1.032 3.329 1.753 1.937 2.192 5.134.704 5.134-.504 0-1.145-.461-1.425-1.025-.279-.564-.392-.451-.25.25.142.701.896 1.275 1.675 1.275 1.993 0 2.327-3.915.465-5.46-2.014-1.672-2.051-4.447-.048-3.678.825.316 1.5.139 1.5-.393 0-1.574-3.011-1.105-3.653.568m7.653.841c0 1.307.675 2.937 1.5 3.622 1.695 1.406 2.019 4 .5 4-.55 0-1-.45-1-1s-.546-1-1.214-1c-.786 0-.644.571.404 1.618.89.89 2.111 1.314 2.714.941 1.576-.974 1.349-4.104-.404-5.559-2.013-1.671-1.974-4.396.052-3.618.89.341 1.291.173.941-.393-1.188-1.922-3.493-1.006-3.493 1.389m7.43-1.057c-.31.808-.421 3.203-.247 5.324.254 3.083.718 3.855 2.317 3.855 1.733 0 2-.667 2-4.986 0-3.957-.362-5.056-1.753-5.324-.964-.186-2.007.323-2.317 1.131m7.706 3.859c.075 2.926.331 4.308.57 3.07.607-3.155 3.077-2.809 3.574.5.227 1.512.368.275.314-2.75-.088-4.905-.342-5.535-2.346-5.82-2.103-.298-2.239.025-2.112 5m8.206-3.629c-.341.888.359 2.566 1.636 3.926 2.52 2.682 1.903 5.494-.73 3.322-1.316-1.087-1.492-1.054-1.077.201.654 1.978 4.218 1.935 4.601-.056.165-.855-.616-2.612-1.736-3.903-2.584-2.979-2.597-4.421-.035-3.751 1.101.288 1.75.115 1.441-.383-.895-1.45-3.451-1.048-4.1.644M24 170c0 1.1.45 2 1 2s1-.9 1-2-.45-2-1-2-1 .9-1 2m8 2.5c0 2.475.45 4.5 1 4.5s1-2.025 1-4.5-.45-4.5-1-4.5-1 2.025-1 4.5m80-2.5c0 1.1.45 2 1 2s1-.9 1-2-.45-2-1-2-1 .9-1 2m15 0c0 1.1.45 2 1 2s1-.9 1-2-.45-2-1-2-1 .9-1 2m15 0c0 1.1.402 2 .893 2 1.124 0 2.173-2.601 1.371-3.402-1.203-1.204-2.264-.547-2.264 1.402m85.193 2.25c.169 2.338.757 4.25 1.307 4.25.55 0 1.138-1.912 1.307-4.25.245-3.373-.025-4.25-1.307-4.25s-1.552.877-1.307 4.25M235.5 169c-.816 1.32.38 3.192 1.569 2.457 1.215-.75 1.207-3.457-.01-3.457-.518 0-1.219.45-1.559 1m-117.579 4.249c-.298 2.15-.145 3.375.358 2.872.483-.483.716-2.17.519-3.749-.33-2.644-.399-2.574-.877.877m2.818-.36c-.272 1.039-.106 2.502.368 3.25.586.925.867.321.878-1.889.017-3.638-.502-4.205-1.246-1.361" fill="#1976D2" fill-rule="evenodd"/></svg>